<svg version="1" xmlns="http://www.w3.org/2000/svg" width="346.667" height="346.667" viewBox="0 0 260.000000 260.000000"><path d="M36.3 22.5c-3.8 1.6-5.3 4.2-5.3 8.8 0 3.9 67 203.1 70.3 208.9 1.3 2.4 3.6 4.5 6.3 5.9 3.9 1.9 5.8 2 22.3 1.7 19.5-.3 20.7-.7 25.3-6.9 3-4 71-204.7 71.1-209.7 0-3.4-.6-4.9-2.7-7l-2.6-2.7-20.3-.3c-22.5-.3-25.1.3-29.2 6.4-1.1 1.6-10.1 30.9-19.9 65-9.8 34-18.5 63.1-19.3 64.6-1.6 3.4-3.8 3.6-5.7.5-.8-1.2-9.4-30.3-19.2-64.6-10.2-35.7-18.6-63.7-19.8-65.5-4-6-6.9-6.6-28.6-6.6-14.3.1-20.3.4-22.7 1.5z"/></svg>